<?xml version="1.0" encoding="utf-8"?>
<!-- Generator: Adobe Illustrator 22.1.0, SVG Export Plug-In . SVG Version: 6.00 Build 0)  -->
<svg version="1.1" id="Calque_1" xmlns="http://www.w3.org/2000/svg" xmlns:xlink="http://www.w3.org/1999/xlink" x="0px" y="0px"
	 viewBox="0 0 329 53.7" style="enable-background:new 0 0 329 53.7;" xml:space="preserve">
<style type="text/css">
	.st0{fill:#ACA39A;}
	.st1{fill-rule:evenodd;clip-rule:evenodd;fill:#007CB7;}
	.st2{fill:#007CB7;}
</style>
<g>
	<g>
		<path class="st0" d="M32.1,10.1V8.9c-9.6,0.8-17.2,8.8-17.5,18.6h1.2c0.1-4.6,2-8.9,5.2-12.2C24.1,12.3,28,10.5,32.1,10.1z"/>
		<path class="st0" d="M47.3,14.4c-3.3-3.3-7.5-5.2-12.1-5.5v1.2c4.2,0.3,8.2,2.1,11.2,5.2c3.4,3.4,5.2,7.9,5.2,12.7
			c0,9.9-8,17.9-17.9,17.9c-4.8,0-9.2-1.9-12.6-5.2h-1.7c0.3,0.3,0.5,0.6,0.8,0.8c3.6,3.6,8.4,5.6,13.5,5.6c5.1,0,9.9-2,13.5-5.6
			c3.6-3.6,5.6-8.4,5.6-13.5C52.9,22.8,50.9,18,47.3,14.4z"/>
		<g>
			<polygon class="st1" points="45.6,38.3 43.4,38.3 44.6,33.5 41.8,33.8 41.8,25 40.5,25 40.5,38.3 25.9,38.3 25.9,36.8 11,37.7 
				11,38.3 11.9,38.3 4.8,38.3 4.7,38.3 4.7,38.4 4.7,39.6 4.7,39.7 4.8,39.7 45.6,39.7 45.6,39.7 45.6,39.6 45.6,38.4 45.6,38.3 
							"/>
			<polygon class="st1" points="26,25 25.4,25 22.1,25 8.7,34.8 11,34.8 			"/>
			<path class="st1" d="M27.3,20.2h0.3V20c0,0,0,0,0,0c0.4-0.4,2.6-1.1,6.1-1.1c3.5,0,5.6,0.6,6.1,1.1c0,0,0,0,0,0v0.2h0.3h0.6h0.3
				V20c0-0.3-0.1-0.5-0.4-0.8c-0.5-0.5-1.5-0.8-2.9-1.1c-0.3-0.3-1.2-0.5-2.2-0.6h0.1h0.3v-0.3c0-0.2-0.1-0.4-0.3-0.6
				c-0.3-0.3-0.8-0.4-1.3-0.5V6.8V6.6H34h-0.7h-0.3v0.3v9.4c-0.8,0.1-1.5,0.4-1.5,1v0.3h0.3H32c-0.9,0.1-1.8,0.2-2.2,0.6
				c-1.7,0.3-3.3,0.8-3.3,1.9v0.3h0.3H27.3z"/>
			<polygon class="st1" points="25.9,26.8 11,35.4 11,36 25.9,29.6 			"/>
			<polygon class="st1" points="25.9,30.4 11,36.3 11,36.7 25.9,32.8 			"/>
			<polygon class="st2" points="11,37.4 25.9,36 25.9,33.6 11,37 			"/>
			<path class="st2" d="M38.4,21C38.4,21,38.4,20.9,38.4,21c0-0.6-2.1-1-4.7-1c-2.6,0-4.7,0.5-4.7,1v1.7c1.3-0.5,4.1-0.5,4.7-0.5
				c0.7,0,3.4,0,4.7,0.5V21z"/>
			<path class="st1" d="M38.4,24.6v-1.3c-0.5-0.2-2.1-0.5-4.7-0.5c-2.6,0-4.2,0.3-4.7,0.5v1.3v0.6c1.3-0.4,3.8-0.4,4.7-0.4
				c0.9,0,3.5,0,4.8,0.4V24.6z"/>
			<path class="st1" d="M38.4,26.5v-0.6c-0.5-0.2-2.1-0.5-4.8-0.5c-2.6,0-4.2,0.3-4.7,0.5v0.6v1.3c1.2-0.3,3.5-0.4,4.7-0.4
				c1.2,0,3.6,0,4.8,0.4V26.5z"/>
			<path class="st1" d="M38.4,30.2v-1.6c-0.5-0.2-2.1-0.4-4.8-0.4c-2.6,0-4.1,0.2-4.7,0.4v1.7v0.2c1.1-0.2,3.3-0.3,4.7-0.3
				c1.5,0,3.7,0,4.8,0.3V30.2z"/>
			<path class="st2" d="M38.4,32.1v-1c-0.6-0.1-2.3-0.3-4.8-0.3c-2.4,0-4.1,0.1-4.7,0.3v0.1v0.8V33c1.1-0.2,3.3-0.2,4.7-0.2
				c1.5,0,3.7,0,4.8,0.2V32.1z"/>
			<path class="st2" d="M33.7,35.8c1.8,0,3.2,0,4,0.1c0.1,0,0.4,0,0.6,0.1c0,0,0.1,0,0.1,0c0,0,0.1,0,0.1,0v-0.1h0V34v-0.3
				c-0.6-0.1-2.3-0.2-4.8-0.2c-2.3,0-4,0.1-4.7,0.2V34v2V36c0,0,0.1,0,0.1,0c0,0,0.1,0,0.2,0c0.1,0,0.2,0,0.2,0v0
				C30.3,35.9,31.8,35.8,33.7,35.8z"/>
		</g>
	</g>
	<g>
		<path class="st0" d="M63.7,39.7V36h-3.5v3.7h-1.3v-8.5h1.3v3.6h3.5v-3.6h1.3v8.5H63.7z"/>
		<path class="st0" d="M71.2,39.1c-0.4,0.4-1,0.7-1.8,0.7s-1.4-0.3-1.8-0.7c-0.6-0.6-0.7-1.4-0.7-2.4c0-1,0.1-1.8,0.7-2.4
			c0.4-0.4,1-0.7,1.8-0.7s1.4,0.3,1.8,0.7c0.6,0.6,0.7,1.4,0.7,2.4C72,37.7,71.8,38.5,71.2,39.1z M70.3,35c-0.2-0.2-0.5-0.3-0.9-0.3
			s-0.7,0.1-0.9,0.3c-0.4,0.4-0.4,1-0.4,1.7c0,0.7,0,1.3,0.4,1.7c0.2,0.2,0.5,0.4,0.9,0.4s0.7-0.1,0.9-0.4c0.4-0.4,0.4-1,0.4-1.7
			C70.7,36,70.7,35.4,70.3,35z"/>
		<path class="st0" d="M76.1,39.8c-1.4,0-2.7-0.8-2.7-3.1c0-2.3,1.3-3.1,2.7-3.1c0.8,0,1.4,0.2,2,0.9l-0.8,0.8
			c-0.4-0.4-0.7-0.6-1.2-0.6c-0.5,0-0.9,0.2-1.1,0.5c-0.3,0.3-0.4,0.8-0.4,1.5c0,0.7,0.1,1.2,0.4,1.5c0.3,0.3,0.7,0.5,1.1,0.5
			c0.5,0,0.8-0.2,1.2-0.6l0.8,0.8C77.6,39.6,77,39.8,76.1,39.8z"/>
		<path class="st0" d="M83.4,39.7V36c0-0.9-0.5-1.3-1.2-1.3s-1.2,0.4-1.2,1.3v3.7h-1.2v-8.5h1.2v3.1c0.4-0.5,1-0.7,1.6-0.7
			c1.4,0,2.1,0.9,2.1,2.2v3.9H83.4z"/>
		<path class="st0" d="M88.6,39.8c-1,0-1.8-0.2-2.6-0.9l0.8-0.8c0.5,0.5,1.2,0.6,1.8,0.6c0.7,0,1.3-0.3,1.3-0.8
			c0-0.4-0.2-0.7-0.8-0.7l-1-0.1c-1.1-0.1-1.8-0.6-1.8-1.7c0-1.2,1-1.9,2.3-1.9c0.9,0,1.7,0.2,2.3,0.7l-0.8,0.8
			c-0.4-0.3-0.9-0.4-1.5-0.4c-0.7,0-1.1,0.3-1.1,0.8c0,0.4,0.2,0.6,0.8,0.7l1,0.1c1.1,0.1,1.8,0.6,1.8,1.7
			C91.1,39.2,90,39.8,88.6,39.8z"/>
		<path class="st0" d="M95.1,39.8c-1.4,0-2.7-0.8-2.7-3.1c0-2.3,1.3-3.1,2.7-3.1c0.8,0,1.4,0.2,2,0.9l-0.8,0.8
			c-0.4-0.4-0.7-0.6-1.2-0.6c-0.5,0-0.9,0.2-1.1,0.5c-0.3,0.3-0.4,0.8-0.4,1.5c0,0.7,0.1,1.2,0.4,1.5c0.3,0.3,0.7,0.5,1.1,0.5
			c0.5,0,0.8-0.2,1.2-0.6l0.8,0.8C96.6,39.6,96,39.8,95.1,39.8z"/>
		<path class="st0" d="M102.4,39.7V36c0-0.9-0.5-1.3-1.2-1.3s-1.2,0.4-1.2,1.3v3.7h-1.2v-8.5h1.2v3.1c0.4-0.5,1-0.7,1.6-0.7
			c1.4,0,2.1,0.9,2.1,2.2v3.9H102.4z"/>
		<path class="st0" d="M109.3,39.7v-0.6c-0.4,0.5-1,0.7-1.6,0.7c-0.6,0-1.1-0.2-1.5-0.6c-0.5-0.5-0.6-1-0.6-1.7v-3.9h1.2v3.7
			c0,0.9,0.5,1.4,1.2,1.4c0.7,0,1.3-0.4,1.3-1.4v-3.7h1.2v6.1H109.3z"/>
		<path class="st0" d="M114.2,39.7c-1.2,0-1.7-0.8-1.7-1.7v-6.9h1.2V38c0,0.5,0.2,0.7,0.7,0.7h0.5v1H114.2z"/>
		<path class="st0" d="M117,37.1c0,1,0.6,1.7,1.5,1.7c0.7,0,1-0.2,1.5-0.6l0.8,0.7c-0.6,0.6-1.2,0.9-2.3,0.9c-1.5,0-2.7-0.8-2.7-3.1
			c0-2,1-3.1,2.6-3.1c1.6,0,2.6,1.2,2.6,2.9v0.5H117z M119.6,35.4c-0.2-0.5-0.6-0.8-1.2-0.8s-1,0.3-1.2,0.8
			c-0.1,0.3-0.1,0.5-0.2,0.8h2.7C119.8,35.8,119.7,35.7,119.6,35.4z"/>
		<path class="st0" d="M127.3,34.7v5H126v-5h-0.7v-0.9h0.7v-0.9c0-0.9,0.5-1.7,1.7-1.7h0.8v1h-0.5c-0.5,0-0.7,0.3-0.7,0.7v0.9h1.2
			v0.9H127.3z"/>
		<path class="st0" d="M133.6,39.7v-0.6c-0.4,0.5-1,0.7-1.6,0.7c-0.6,0-1.1-0.2-1.5-0.6c-0.5-0.5-0.6-1-0.6-1.7v-3.9h1.2v3.7
			c0,0.9,0.5,1.4,1.2,1.4c0.7,0,1.3-0.4,1.3-1.4v-3.7h1.2v6.1H133.6z M130.5,32.5v-1.3h1.1v1.3H130.5z M133.1,32.5v-1.3h1.1v1.3
			H133.1z"/>
		<path class="st0" d="M140.2,35.1c-0.3-0.3-0.5-0.4-0.9-0.4c-0.7,0-1.2,0.5-1.2,1.4v3.7h-1.2v-6.1h1.2v0.7c0.3-0.4,0.9-0.7,1.6-0.7
			c0.6,0,1,0.2,1.5,0.6L140.2,35.1z"/>
		<path class="st0" d="M148.2,32.4v7.4h-1.3v-7.4h-2.4v-1.2h6v1.2H148.2z"/>
		<path class="st0" d="M152,37.1c0,1,0.6,1.7,1.5,1.7c0.7,0,1-0.2,1.5-0.6l0.8,0.7c-0.6,0.6-1.2,0.9-2.3,0.9c-1.5,0-2.7-0.8-2.7-3.1
			c0-2,1-3.1,2.6-3.1c1.6,0,2.6,1.2,2.6,2.9v0.5H152z M154.6,35.4c-0.2-0.5-0.6-0.8-1.2-0.8s-1,0.3-1.2,0.8
			c-0.1,0.3-0.1,0.5-0.2,0.8h2.7C154.7,35.8,154.7,35.7,154.6,35.4z"/>
		<path class="st0" d="M160.1,39.8c-1.4,0-2.7-0.8-2.7-3.1c0-2.3,1.3-3.1,2.7-3.1c0.8,0,1.4,0.2,2,0.9l-0.8,0.8
			c-0.4-0.4-0.7-0.6-1.2-0.6c-0.5,0-0.9,0.2-1.1,0.5c-0.3,0.3-0.4,0.8-0.4,1.5c0,0.7,0.1,1.2,0.4,1.5c0.3,0.3,0.7,0.5,1.1,0.5
			c0.5,0,0.8-0.2,1.2-0.6l0.8,0.8C161.5,39.6,160.9,39.8,160.1,39.8z"/>
		<path class="st0" d="M167.3,39.7V36c0-0.9-0.5-1.3-1.2-1.3s-1.2,0.4-1.2,1.3v3.7h-1.2v-8.5h1.2v3.1c0.4-0.5,1-0.7,1.6-0.7
			c1.4,0,2.1,0.9,2.1,2.2v3.9H167.3z"/>
		<path class="st0" d="M174.3,39.7V36c0-0.9-0.5-1.4-1.2-1.4s-1.3,0.4-1.3,1.4v3.7h-1.2v-6.1h1.2v0.6c0.4-0.5,1-0.7,1.6-0.7
			c0.6,0,1.1,0.2,1.5,0.6c0.5,0.5,0.6,1,0.6,1.7v3.9H174.3z"/>
		<path class="st0" d="M177.5,32.5v-1.3h1.3v1.3H177.5z M177.5,39.7v-6.1h1.2v6.1H177.5z"/>
		<path class="st0" d="M184.6,39.7l-1.7-2.8l-0.9,1v1.8h-1.2v-8.5h1.2v5.3l2.4-2.8h1.5l-2.1,2.4l2.4,3.7H184.6z"/>
		<path class="st0" d="M194.2,39.7v-0.6c-0.4,0.5-1,0.7-1.6,0.7c-0.6,0-1.1-0.2-1.5-0.6c-0.5-0.5-0.6-1-0.6-1.7v-3.9h1.2v3.7
			c0,0.9,0.5,1.4,1.2,1.4s1.3-0.4,1.3-1.4v-3.7h1.2v6.1H194.2z"/>
		<path class="st0" d="M201.2,39.7V36c0-0.9-0.5-1.4-1.2-1.4s-1.3,0.4-1.3,1.4v3.7h-1.2v-6.1h1.2v0.6c0.4-0.5,1-0.7,1.6-0.7
			c0.6,0,1.1,0.2,1.5,0.6c0.5,0.5,0.6,1,0.6,1.7v3.9H201.2z"/>
		<path class="st0" d="M207.9,39.7v-0.6c-0.5,0.6-0.9,0.7-1.6,0.7c-0.6,0-1.2-0.2-1.5-0.5c-0.6-0.6-0.7-1.7-0.7-2.6
			c0-0.9,0.1-2,0.7-2.6c0.3-0.3,0.9-0.5,1.5-0.5c0.6,0,1.2,0.2,1.6,0.7v-3.1h1.2v8.5H207.9z M206.6,34.7c-1.1,0-1.3,0.9-1.3,2
			c0,1.1,0.2,2,1.3,2s1.3-0.9,1.3-2C207.9,35.6,207.7,34.7,206.6,34.7z"/>
		<path class="st0" d="M219.3,39.7l-0.6-1.7h-3.4l-0.6,1.7h-1.4l3.1-8.5h1l3.1,8.5H219.3z M217,33.1l-1.3,3.8h2.6L217,33.1z"/>
		<path class="st0" d="M225.2,35.1c-0.3-0.3-0.5-0.4-0.9-0.4c-0.7,0-1.2,0.5-1.2,1.4v3.7h-1.2v-6.1h1.2v0.7c0.3-0.4,0.9-0.7,1.6-0.7
			c0.6,0,1,0.2,1.5,0.6L225.2,35.1z"/>
		<path class="st0" d="M229.2,39.8c-1.4,0-2.7-0.8-2.7-3.1c0-2.3,1.3-3.1,2.7-3.1c0.8,0,1.4,0.2,2,0.9l-0.8,0.8
			c-0.4-0.4-0.7-0.6-1.2-0.6c-0.5,0-0.9,0.2-1.1,0.5c-0.3,0.3-0.4,0.8-0.4,1.5c0,0.7,0.1,1.2,0.4,1.5c0.3,0.3,0.7,0.5,1.1,0.5
			c0.5,0,0.8-0.2,1.2-0.6l0.8,0.8C230.7,39.6,230.1,39.8,229.2,39.8z"/>
		<path class="st0" d="M236.5,39.7V36c0-0.9-0.5-1.3-1.2-1.3S234,35.1,234,36v3.7h-1.2v-8.5h1.2v3.1c0.4-0.5,1-0.7,1.6-0.7
			c1.4,0,2.1,0.9,2.1,2.2v3.9H236.5z"/>
		<path class="st0" d="M239.7,32.5v-1.3h1.3v1.3H239.7z M239.7,39.7v-6.1h1.2v6.1H239.7z"/>
		<path class="st0" d="M244.8,39.7c-1.1,0-1.7-0.8-1.7-1.7v-3.3h-0.7v-0.9h0.7v-1.8h1.2v1.8h1.2v0.9h-1.2V38c0,0.4,0.2,0.7,0.7,0.7
			h0.5v1H244.8z"/>
		<path class="st0" d="M248.1,37.1c0,1,0.6,1.7,1.5,1.7c0.7,0,1-0.2,1.5-0.6l0.8,0.7c-0.6,0.6-1.2,0.9-2.3,0.9
			c-1.5,0-2.7-0.8-2.7-3.1c0-2,1-3.1,2.6-3.1c1.6,0,2.6,1.2,2.6,2.9v0.5H248.1z M250.7,35.4c-0.2-0.5-0.6-0.8-1.2-0.8
			c-0.6,0-1,0.3-1.2,0.8c-0.1,0.3-0.1,0.5-0.2,0.8h2.7C250.8,35.8,250.8,35.7,250.7,35.4z"/>
		<path class="st0" d="M257.6,39.7l-1.7-2.8l-0.9,1v1.8h-1.2v-8.5h1.2v5.3l2.4-2.8h1.5l-2.1,2.4l2.4,3.7H257.6z"/>
		<path class="st0" d="M262.3,39.7c-1.1,0-1.7-0.8-1.7-1.7v-3.3H260v-0.9h0.7v-1.8h1.2v1.8h1.2v0.9h-1.2V38c0,0.4,0.2,0.7,0.7,0.7
			h0.5v1H262.3z"/>
		<path class="st0" d="M268.4,39.7v-0.6c-0.4,0.5-1,0.7-1.6,0.7c-0.6,0-1.1-0.2-1.5-0.6c-0.5-0.5-0.6-1-0.6-1.7v-3.9h1.2v3.7
			c0,0.9,0.5,1.4,1.2,1.4s1.3-0.4,1.3-1.4v-3.7h1.2v6.1H268.4z"/>
		<path class="st0" d="M275,35.1c-0.3-0.3-0.5-0.4-0.9-0.4c-0.7,0-1.2,0.5-1.2,1.4v3.7h-1.2v-6.1h1.2v0.7c0.3-0.4,0.9-0.7,1.6-0.7
			c0.6,0,1,0.2,1.5,0.6L275,35.1z"/>
		<path class="st0" d="M281.7,32.4V35h3.5v1.2h-3.5v3.6h-1.3v-8.5h5.5v1.2H281.7z"/>
		<path class="st0" d="M290.3,35.1c-0.3-0.3-0.5-0.4-0.9-0.4c-0.7,0-1.2,0.5-1.2,1.4v3.7h-1.2v-6.1h1.2v0.7c0.3-0.4,0.9-0.7,1.6-0.7
			c0.6,0,1,0.2,1.5,0.6L290.3,35.1z"/>
		<path class="st0" d="M292.7,37.1c0,1,0.6,1.7,1.5,1.7c0.7,0,1-0.2,1.5-0.6l0.8,0.7c-0.6,0.6-1.2,0.9-2.3,0.9
			c-1.5,0-2.7-0.8-2.7-3.1c0-2,1-3.1,2.6-3.1c1.6,0,2.6,1.2,2.6,2.9v0.5H292.7z M295.3,35.4c-0.2-0.5-0.6-0.8-1.2-0.8
			s-1,0.3-1.2,0.8c-0.1,0.3-0.1,0.5-0.2,0.8h2.7C295.4,35.8,295.4,35.7,295.3,35.4z"/>
		<path class="st0" d="M298.2,32.5v-1.3h1.3v1.3H298.2z M298.2,39.7v-6.1h1.2v6.1H298.2z"/>
		<path class="st0" d="M305.7,39.3c-0.3,0.3-0.9,0.5-1.5,0.5c-0.7,0-1.2-0.2-1.6-0.7v0.6h-1.2v-8.5h1.2v3.1c0.4-0.5,0.9-0.7,1.6-0.7
			c0.6,0,1.1,0.2,1.5,0.5c0.6,0.6,0.7,1.6,0.7,2.6C306.4,37.6,306.3,38.7,305.7,39.3z M303.9,34.7c-1.1,0-1.3,0.9-1.3,2
			c0,1.1,0.2,2,1.3,2s1.3-0.9,1.3-2C305.1,35.6,305,34.7,303.9,34.7z"/>
		<path class="st0" d="M311.7,39.7v-0.6c-0.4,0.5-1,0.7-1.6,0.7c-0.6,0-1.1-0.2-1.5-0.6c-0.5-0.5-0.6-1-0.6-1.7v-3.9h1.2v3.7
			c0,0.9,0.5,1.4,1.2,1.4s1.3-0.4,1.3-1.4v-3.7h1.2v6.1H311.7z"/>
		<path class="st0" d="M318.1,35.1c-0.3-0.3-0.5-0.4-0.9-0.4c-0.7,0-1.2,0.5-1.2,1.4v3.7h-1.2v-6.1h1.2v0.7c0.3-0.4,0.9-0.7,1.6-0.7
			c0.6,0,1,0.2,1.5,0.6L318.1,35.1z"/>
		<path class="st0" d="M321.7,42.3c-0.9,0-1.5-0.2-2.1-0.8l0.8-0.8c0.4,0.4,0.7,0.5,1.3,0.5c1,0,1.4-0.7,1.4-1.5v-0.8
			c-0.4,0.5-0.9,0.7-1.6,0.7c-0.6,0-1.1-0.2-1.5-0.5c-0.6-0.6-0.7-1.4-0.7-2.5s0.1-1.9,0.7-2.5c0.3-0.3,0.9-0.5,1.5-0.5
			c0.6,0,1.1,0.2,1.6,0.7v-0.6h1.2v6C324.3,41.2,323.3,42.3,321.7,42.3z M321.8,34.7c-1.1,0-1.2,0.9-1.2,1.9c0,1,0.1,1.9,1.2,1.9
			s1.2-0.9,1.2-1.9C323.1,35.6,322.9,34.7,321.8,34.7z"/>
	</g>
	<g>
		<path class="st2" d="M63.7,26v-3.7h-3.5V26h-1.3v-8.5h1.3v3.6h3.5v-3.6H65V26H63.7z"/>
		<path class="st2" d="M70.3,26v-0.6c-0.4,0.4-0.9,0.6-1.6,0.6c-0.8,0-1.3-0.2-1.6-0.6c-0.3-0.3-0.5-0.8-0.5-1.3
			c0-1,0.7-1.8,2.1-1.8h1.6V22c0-0.8-0.4-1.1-1.3-1.1c-0.7,0-1,0.2-1.3,0.6l-0.8-0.8c0.6-0.7,1.2-0.9,2.2-0.9c1.7,0,2.5,0.7,2.5,2.1
			V26H70.3z M70.2,23.3h-1.4c-0.7,0-1.1,0.3-1.1,0.9c0,0.6,0.3,0.9,1.1,0.9c0.5,0,0.8,0,1.1-0.3c0.2-0.2,0.3-0.5,0.3-0.9V23.3z"/>
		<path class="st2" d="M76.9,26v-0.6c-0.4,0.5-1,0.7-1.6,0.7c-0.6,0-1.1-0.2-1.5-0.6c-0.5-0.5-0.6-1-0.6-1.7v-3.9h1.2v3.7
			c0,0.9,0.5,1.4,1.2,1.4c0.7,0,1.3-0.4,1.3-1.4v-3.7h1.2V26H76.9z"/>
		<path class="st2" d="M81.8,26c-1.1,0-1.7-0.8-1.7-1.7V21h-0.7V20h0.7v-1.8h1.2V20h1.2V21h-1.2v3.3c0,0.4,0.2,0.7,0.7,0.7h0.5v1
			H81.8z"/>
		<path class="st2" d="M84.8,23.3c0,1,0.6,1.7,1.5,1.7c0.7,0,1-0.2,1.5-0.6l0.8,0.7c-0.6,0.6-1.2,0.9-2.3,0.9
			c-1.5,0-2.7-0.8-2.7-3.1c0-2,1-3.1,2.6-3.1c1.6,0,2.6,1.2,2.6,2.9v0.5H84.8z M87.4,21.6c-0.2-0.5-0.6-0.8-1.2-0.8s-1,0.3-1.2,0.8
			c-0.1,0.3-0.1,0.5-0.2,0.8h2.7C87.6,22.1,87.5,21.9,87.4,21.6z"/>
		<path class="st2" d="M94,23.3c0,1,0.6,1.7,1.5,1.7c0.7,0,1-0.2,1.5-0.6l0.8,0.7c-0.6,0.6-1.2,0.9-2.3,0.9c-1.5,0-2.7-0.8-2.7-3.1
			c0-2,1-3.1,2.6-3.1c1.6,0,2.6,1.2,2.6,2.9v0.5H94z M96.6,21.6c-0.2-0.5-0.6-0.8-1.2-0.8s-1,0.3-1.2,0.8c-0.1,0.3-0.1,0.5-0.2,0.8
			h2.7C96.7,22.1,96.7,21.9,96.6,21.6z M95.7,18.8h-0.9l0.9-1.9h1.4L95.7,18.8z"/>
		<path class="st2" d="M101.9,26.1c-1.4,0-2.7-0.8-2.7-3.1c0-2.3,1.3-3.1,2.7-3.1c0.8,0,1.4,0.2,2,0.9l-0.8,0.8
			c-0.4-0.4-0.7-0.6-1.2-0.6c-0.5,0-0.9,0.2-1.1,0.5c-0.3,0.3-0.4,0.8-0.4,1.5c0,0.7,0.1,1.2,0.4,1.5c0.3,0.3,0.7,0.5,1.1,0.5
			c0.5,0,0.8-0.2,1.2-0.6l0.8,0.8C103.3,25.8,102.7,26.1,101.9,26.1z"/>
		<path class="st2" d="M109.1,25.4c-0.4,0.4-1,0.7-1.8,0.7s-1.4-0.3-1.8-0.7c-0.6-0.6-0.7-1.4-0.7-2.4c0-1,0.1-1.8,0.7-2.4
			c0.4-0.4,1-0.7,1.8-0.7s1.4,0.3,1.8,0.7c0.6,0.6,0.7,1.4,0.7,2.4C109.8,24,109.7,24.8,109.1,25.4z M108.2,21.3
			c-0.2-0.2-0.5-0.3-0.9-0.3s-0.7,0.1-0.9,0.3c-0.4,0.4-0.4,1-0.4,1.7c0,0.7,0,1.3,0.4,1.7c0.2,0.2,0.5,0.4,0.9,0.4s0.7-0.1,0.9-0.4
			c0.4-0.4,0.4-1,0.4-1.7C108.6,22.3,108.6,21.7,108.2,21.3z"/>
		<path class="st2" d="M113,26c-1.2,0-1.7-0.8-1.7-1.7v-6.9h1.2v6.8c0,0.5,0.2,0.7,0.7,0.7h0.5v1H113z"/>
		<path class="st2" d="M115.6,23.3c0,1,0.6,1.7,1.5,1.7c0.7,0,1-0.2,1.5-0.6l0.8,0.7c-0.6,0.6-1.2,0.9-2.3,0.9
			c-1.5,0-2.7-0.8-2.7-3.1c0-2,1-3.1,2.6-3.1c1.6,0,2.6,1.2,2.6,2.9v0.5H115.6z M118.2,21.6c-0.2-0.5-0.6-0.8-1.2-0.8
			s-1,0.3-1.2,0.8c-0.1,0.3-0.1,0.5-0.2,0.8h2.7C118.4,22.1,118.3,21.9,118.2,21.6z"/>
		<path class="st2" d="M127.4,26v-0.6c-0.5,0.6-0.9,0.7-1.6,0.7c-0.6,0-1.2-0.2-1.5-0.5c-0.6-0.6-0.7-1.7-0.7-2.6
			c0-0.9,0.1-2,0.7-2.6c0.3-0.3,0.9-0.5,1.5-0.5c0.6,0,1.2,0.2,1.6,0.7v-3.1h1.2V26H127.4z M126.1,21c-1.1,0-1.3,0.9-1.3,2
			c0,1.1,0.2,2,1.3,2s1.3-0.9,1.3-2C127.4,21.9,127.2,21,126.1,21z"/>
		<path class="st2" d="M130.4,19.8v-2.4h1.3v1.3L130.4,19.8z"/>
		<path class="st2" d="M133.6,18.7v-1.3h1.3v1.3H133.6z M133.6,26v-6.1h1.2V26H133.6z"/>
		<path class="st2" d="M140.4,26v-3.7c0-0.9-0.5-1.4-1.2-1.4s-1.3,0.4-1.3,1.4V26h-1.2v-6.1h1.2v0.6c0.4-0.5,1-0.7,1.6-0.7
			c0.6,0,1.1,0.2,1.5,0.6c0.5,0.5,0.6,1,0.6,1.7V26H140.4z"/>
		<path class="st2" d="M145.5,28.5c-0.9,0-1.5-0.2-2.1-0.8l0.8-0.8c0.4,0.4,0.7,0.5,1.3,0.5c1,0,1.4-0.7,1.4-1.5v-0.8
			c-0.4,0.5-0.9,0.7-1.6,0.7c-0.6,0-1.1-0.2-1.5-0.5c-0.6-0.6-0.7-1.4-0.7-2.5s0.1-1.9,0.7-2.5c0.3-0.3,0.9-0.5,1.5-0.5
			c0.6,0,1.1,0.2,1.6,0.7v-0.6h1.2v6C148.1,27.5,147.1,28.5,145.5,28.5z M145.6,21c-1.1,0-1.2,0.9-1.2,1.9c0,1,0.1,1.9,1.2,1.9
			s1.2-0.9,1.2-1.9C146.8,21.9,146.7,21,145.6,21z"/>
		<path class="st2" d="M150.8,23.3c0,1,0.6,1.7,1.5,1.7c0.7,0,1-0.2,1.5-0.6l0.8,0.7c-0.6,0.6-1.2,0.9-2.3,0.9
			c-1.5,0-2.7-0.8-2.7-3.1c0-2,1-3.1,2.6-3.1c1.6,0,2.6,1.2,2.6,2.9v0.5H150.8z M153.4,21.6c-0.2-0.5-0.6-0.8-1.2-0.8
			s-1,0.3-1.2,0.8c-0.1,0.3-0.1,0.5-0.2,0.8h2.7C153.5,22.1,153.5,21.9,153.4,21.6z M152.5,18.8h-0.9l0.9-1.9h1.4L152.5,18.8z"/>
		<path class="st2" d="M160,26v-3.7c0-0.9-0.5-1.4-1.2-1.4s-1.3,0.4-1.3,1.4V26h-1.2v-6.1h1.2v0.6c0.4-0.5,1-0.7,1.6-0.7
			c0.6,0,1.1,0.2,1.5,0.6c0.5,0.5,0.6,1,0.6,1.7V26H160z"/>
		<path class="st2" d="M163,18.7v-1.3h1.3v1.3H163z M163,26v-6.1h1.2V26H163z"/>
		<path class="st2" d="M167,23.3c0,1,0.6,1.7,1.5,1.7c0.7,0,1-0.2,1.5-0.6l0.8,0.7c-0.6,0.6-1.2,0.9-2.3,0.9c-1.5,0-2.7-0.8-2.7-3.1
			c0-2,1-3.1,2.6-3.1c1.6,0,2.6,1.2,2.6,2.9v0.5H167z M169.6,21.6c-0.2-0.5-0.6-0.8-1.2-0.8c-0.6,0-1,0.3-1.2,0.8
			c-0.1,0.3-0.1,0.5-0.2,0.8h2.7C169.7,22.1,169.7,21.9,169.6,21.6z"/>
		<path class="st2" d="M175.9,21.4c-0.3-0.3-0.5-0.4-0.9-0.4c-0.7,0-1.2,0.5-1.2,1.4V26h-1.2v-6.1h1.2v0.7c0.3-0.4,0.9-0.7,1.6-0.7
			c0.6,0,1,0.2,1.5,0.6L175.9,21.4z"/>
		<path class="st2" d="M177.7,18.7v-1.3h1.3v1.3H177.7z M177.7,26v-6.1h1.2V26H177.7z"/>
		<path class="st2" d="M181.7,23.3c0,1,0.6,1.7,1.5,1.7c0.7,0,1-0.2,1.5-0.6l0.8,0.7c-0.6,0.6-1.2,0.9-2.3,0.9
			c-1.5,0-2.7-0.8-2.7-3.1c0-2,1-3.1,2.6-3.1c1.6,0,2.6,1.2,2.6,2.9v0.5H181.7z M184.2,21.6c-0.2-0.5-0.6-0.8-1.2-0.8
			c-0.6,0-1,0.3-1.2,0.8c-0.1,0.3-0.1,0.5-0.2,0.8h2.7C184.4,22.1,184.4,21.9,184.2,21.6z"/>
		<path class="st2" d="M190.9,23.3c0,1,0.6,1.7,1.5,1.7c0.7,0,1-0.2,1.5-0.6l0.8,0.7c-0.6,0.6-1.2,0.9-2.3,0.9
			c-1.5,0-2.7-0.8-2.7-3.1c0-2,1-3.1,2.6-3.1c1.6,0,2.6,1.2,2.6,2.9v0.5H190.9z M193.4,21.6c-0.2-0.5-0.6-0.8-1.2-0.8
			c-0.6,0-1,0.3-1.2,0.8c-0.1,0.3-0.1,0.5-0.2,0.8h2.7C193.6,22.1,193.5,21.9,193.4,21.6z"/>
		<path class="st2" d="M198.2,26c-1.1,0-1.7-0.8-1.7-1.7V21h-0.7V20h0.7v-1.8h1.2V20h1.2V21h-1.2v3.3c0,0.4,0.2,0.7,0.7,0.7h0.5v1
			H198.2z"/>
		<path class="st2" d="M206.6,26v-0.6c-0.5,0.6-0.9,0.7-1.6,0.7c-0.6,0-1.2-0.2-1.5-0.5c-0.6-0.6-0.7-1.7-0.7-2.6
			c0-0.9,0.1-2,0.7-2.6c0.3-0.3,0.9-0.5,1.5-0.5c0.6,0,1.2,0.2,1.6,0.7v-3.1h1.2V26H206.6z M205.4,21c-1.1,0-1.3,0.9-1.3,2
			c0,1.1,0.2,2,1.3,2c1.1,0,1.3-0.9,1.3-2C206.6,21.9,206.5,21,205.4,21z"/>
		<path class="st2" d="M209.7,19.8v-2.4h1.3v1.3L209.7,19.8z"/>
		<path class="st2" d="M216.1,26v-0.6c-0.4,0.4-0.9,0.6-1.6,0.6c-0.8,0-1.3-0.2-1.6-0.6c-0.3-0.3-0.5-0.8-0.5-1.3
			c0-1,0.7-1.8,2.1-1.8h1.6V22c0-0.8-0.4-1.1-1.3-1.1c-0.7,0-1,0.2-1.3,0.6l-0.8-0.8c0.6-0.7,1.2-0.9,2.2-0.9c1.7,0,2.5,0.7,2.5,2.1
			V26H216.1z M216.1,23.3h-1.4c-0.7,0-1.1,0.3-1.1,0.9c0,0.6,0.3,0.9,1.1,0.9c0.5,0,0.8,0,1.1-0.3c0.2-0.2,0.3-0.5,0.3-0.9V23.3z"/>
		<path class="st2" d="M222.5,21.4c-0.3-0.3-0.5-0.4-0.9-0.4c-0.7,0-1.2,0.5-1.2,1.4V26h-1.2v-6.1h1.2v0.7c0.3-0.4,0.9-0.7,1.6-0.7
			c0.6,0,1,0.2,1.5,0.6L222.5,21.4z"/>
		<path class="st2" d="M226.3,26.1c-1.4,0-2.7-0.8-2.7-3.1c0-2.3,1.3-3.1,2.7-3.1c0.8,0,1.4,0.2,2,0.9l-0.8,0.8
			c-0.4-0.4-0.7-0.6-1.2-0.6c-0.5,0-0.9,0.2-1.1,0.5c-0.3,0.3-0.4,0.8-0.4,1.5c0,0.7,0.1,1.2,0.4,1.5c0.3,0.3,0.7,0.5,1.1,0.5
			c0.5,0,0.8-0.2,1.2-0.6l0.8,0.8C227.7,25.8,227.2,26.1,226.3,26.1z"/>
		<path class="st2" d="M233.3,26v-3.7c0-0.9-0.5-1.3-1.2-1.3s-1.2,0.4-1.2,1.3V26h-1.2v-8.5h1.2v3.1c0.4-0.5,1-0.7,1.6-0.7
			c1.4,0,2.1,0.9,2.1,2.2V26H233.3z"/>
		<path class="st2" d="M236.3,18.7v-1.3h1.3v1.3H236.3z M236.4,26v-6.1h1.2V26H236.4z"/>
		<path class="st2" d="M241.3,26c-1.1,0-1.7-0.8-1.7-1.7V21h-0.7V20h0.7v-1.8h1.2V20h1.2V21h-1.2v3.3c0,0.4,0.2,0.7,0.7,0.7h0.5v1
			H241.3z"/>
		<path class="st2" d="M244.3,23.3c0,1,0.6,1.7,1.5,1.7c0.7,0,1-0.2,1.5-0.6l0.8,0.7c-0.6,0.6-1.2,0.9-2.3,0.9
			c-1.5,0-2.7-0.8-2.7-3.1c0-2,1-3.1,2.6-3.1c1.6,0,2.6,1.2,2.6,2.9v0.5H244.3z M246.9,21.6c-0.2-0.5-0.6-0.8-1.2-0.8
			c-0.6,0-1,0.3-1.2,0.8c-0.1,0.3-0.1,0.5-0.2,0.8h2.7C247,22.1,247,21.9,246.9,21.6z"/>
		<path class="st2" d="M252.2,26.1c-1.4,0-2.7-0.8-2.7-3.1c0-2.3,1.3-3.1,2.7-3.1c0.8,0,1.4,0.2,2,0.9l-0.8,0.8
			c-0.4-0.4-0.7-0.6-1.2-0.6c-0.5,0-0.9,0.2-1.1,0.5c-0.3,0.3-0.4,0.8-0.4,1.5c0,0.7,0.1,1.2,0.4,1.5c0.3,0.3,0.7,0.5,1.1,0.5
			c0.5,0,0.8-0.2,1.2-0.6l0.8,0.8C253.6,25.8,253,26.1,252.2,26.1z"/>
		<path class="st2" d="M257.3,26c-1.1,0-1.7-0.8-1.7-1.7V21H255V20h0.7v-1.8h1.2V20h1.2V21h-1.2v3.3c0,0.4,0.2,0.7,0.7,0.7h0.5v1
			H257.3z"/>
		<path class="st2" d="M263.2,26v-0.6c-0.4,0.5-1,0.7-1.6,0.7c-0.6,0-1.1-0.2-1.5-0.6c-0.5-0.5-0.6-1-0.6-1.7v-3.9h1.2v3.7
			c0,0.9,0.5,1.4,1.2,1.4s1.3-0.4,1.3-1.4v-3.7h1.2V26H263.2z"/>
		<path class="st2" d="M269.6,21.4c-0.3-0.3-0.5-0.4-0.9-0.4c-0.7,0-1.2,0.5-1.2,1.4V26h-1.2v-6.1h1.2v0.7c0.3-0.4,0.9-0.7,1.6-0.7
			c0.6,0,1,0.2,1.5,0.6L269.6,21.4z"/>
		<path class="st2" d="M272,23.3c0,1,0.6,1.7,1.5,1.7c0.7,0,1-0.2,1.5-0.6l0.8,0.7c-0.6,0.6-1.2,0.9-2.3,0.9c-1.5,0-2.7-0.8-2.7-3.1
			c0-2,1-3.1,2.6-3.1c1.6,0,2.6,1.2,2.6,2.9v0.5H272z M274.6,21.6c-0.2-0.5-0.6-0.8-1.2-0.8c-0.6,0-1,0.3-1.2,0.8
			c-0.1,0.3-0.1,0.5-0.2,0.8h2.7C274.7,22.1,274.7,21.9,274.6,21.6z"/>
		<path class="st2" d="M281.7,18.6v2.6h3.5v1.2h-3.5V26h-1.3v-8.5h5.5v1.2H281.7z"/>
		<path class="st2" d="M290.2,21.4c-0.3-0.3-0.5-0.4-0.9-0.4c-0.7,0-1.2,0.5-1.2,1.4V26h-1.2v-6.1h1.2v0.7c0.3-0.4,0.9-0.7,1.6-0.7
			c0.6,0,1,0.2,1.5,0.6L290.2,21.4z"/>
		<path class="st2" d="M292,18.7v-1.3h1.3v1.3H292z M292.1,26v-6.1h1.2V26H292.1z"/>
		<path class="st2" d="M299.5,25.5c-0.3,0.3-0.9,0.5-1.5,0.5c-0.7,0-1.2-0.2-1.6-0.7V26h-1.2v-8.5h1.2v3.1c0.4-0.5,0.9-0.7,1.6-0.7
			c0.6,0,1.1,0.2,1.5,0.5c0.6,0.6,0.7,1.6,0.7,2.6C300.1,23.9,300.1,24.9,299.5,25.5z M297.7,21c-1.1,0-1.3,0.9-1.3,2
			c0,1.1,0.2,2,1.3,2s1.3-0.9,1.3-2C298.9,21.9,298.8,21,297.7,21z"/>
		<path class="st2" d="M305.8,25.4c-0.4,0.4-1,0.7-1.8,0.7c-0.8,0-1.4-0.3-1.8-0.7c-0.6-0.6-0.7-1.4-0.7-2.4c0-1,0.1-1.8,0.7-2.4
			c0.4-0.4,1-0.7,1.8-0.7c0.8,0,1.4,0.3,1.8,0.7c0.6,0.6,0.7,1.4,0.7,2.4C306.5,24,306.4,24.8,305.8,25.4z M304.9,21.3
			c-0.2-0.2-0.5-0.3-0.9-0.3c-0.4,0-0.7,0.1-0.9,0.3c-0.4,0.4-0.4,1-0.4,1.7c0,0.7,0,1.3,0.4,1.7c0.2,0.2,0.5,0.4,0.9,0.4
			c0.4,0,0.7-0.1,0.9-0.4c0.4-0.4,0.4-1,0.4-1.7C305.3,22.3,305.3,21.7,304.9,21.3z"/>
		<path class="st2" d="M311.8,26v-0.6c-0.4,0.5-1,0.7-1.6,0.7c-0.6,0-1.1-0.2-1.5-0.6c-0.5-0.5-0.6-1-0.6-1.7v-3.9h1.2v3.7
			c0,0.9,0.5,1.4,1.2,1.4s1.3-0.4,1.3-1.4v-3.7h1.2V26H311.8z"/>
		<path class="st2" d="M318.2,21.4c-0.3-0.3-0.5-0.4-0.9-0.4c-0.7,0-1.2,0.5-1.2,1.4V26h-1.2v-6.1h1.2v0.7c0.3-0.4,0.9-0.7,1.6-0.7
			c0.6,0,1,0.2,1.5,0.6L318.2,21.4z"/>
		<path class="st2" d="M321.7,28.5c-0.9,0-1.5-0.2-2.1-0.8l0.8-0.8c0.4,0.4,0.7,0.5,1.3,0.5c1,0,1.4-0.7,1.4-1.5v-0.8
			c-0.4,0.5-0.9,0.7-1.6,0.7c-0.6,0-1.1-0.2-1.5-0.5c-0.6-0.6-0.7-1.4-0.7-2.5s0.1-1.9,0.7-2.5c0.3-0.3,0.9-0.5,1.5-0.5
			c0.6,0,1.1,0.2,1.6,0.7v-0.6h1.2v6C324.3,27.5,323.3,28.5,321.7,28.5z M321.8,21c-1.1,0-1.2,0.9-1.2,1.9c0,1,0.1,1.9,1.2,1.9
			s1.2-0.9,1.2-1.9C323,21.9,322.9,21,321.8,21z"/>
	</g>
</g>
</svg>
