<?xml version="1.0" encoding="UTF-8" standalone="no"?>
<!-- Created with Inkscape (http://www.inkscape.org/) -->

<svg
   version="1.1"
   id="svg2"
   width="3840"
   height="674"
   viewBox="0 0 3840 674"
   sodipodi:docname="Pure Storage Logo Full Color.eps"
   xmlns:inkscape="http://www.inkscape.org/namespaces/inkscape"
   xmlns:sodipodi="http://sodipodi.sourceforge.net/DTD/sodipodi-0.dtd"
   xmlns="http://www.w3.org/2000/svg"
   xmlns:svg="http://www.w3.org/2000/svg">
  <defs
     id="defs6" />
  <sodipodi:namedview
     id="namedview4"
     pagecolor="#ffffff"
     bordercolor="#000000"
     borderopacity="0.25"
     inkscape:showpageshadow="2"
     inkscape:pageopacity="0.0"
     inkscape:pagecheckerboard="0"
     inkscape:deskcolor="#d1d1d1" />
  <g
     id="g8"
     inkscape:groupmode="layer"
     inkscape:label="ink_ext_XXXXXX"
     transform="matrix(1.3333333,0,0,-1.3333333,0,674)">
    <g
       id="g10"
       transform="scale(0.1)">
      <path
         d="m 3003.94,0 h -1241 C 1506.78,0 1268,137.809 1139.97,359.391 L 95.8281,2167.73 c -127.75,221.9 -127.75,497.45 -0.1211,719.11 L 1139.97,4695.26 c 127.91,221.9 366.7,359.72 622.97,359.72 h 2087.87 c 256.2,0 494.86,-137.82 623.02,-359.72 L 5517.84,2887.01 c 128.04,-221.66 128.04,-497.38 0,-719.28 l -269.99,-430.5 C 5122.12,1519.39 4883.34,1381.74 4627.07,1381.74 H 3384.36 l 679.35,1146.52 -628.38,1088.01 H 2178.21 L 1549.48,2527.45 3003.94,0 v 0"
         style="fill:#f0401e;fill-opacity:1;fill-rule:nonzero;stroke:none"
         id="path12" />
      <path
         d="m 7596.52,2555.91 c 222,0 363.4,67.23 363.4,299.45 0,228.82 -121.19,292.8 -333.19,292.8 H 7465.26 V 2555.91 Z M 7465.26,1364.73 h -578.74 v 2237.66 h 821 c 528.27,0 847.92,-245.7 847.92,-710 0,-521.61 -380.22,-784.04 -918.53,-784.04 h -171.65 v -743.62"
         style="fill:#201f1e;fill-opacity:1;fill-rule:nonzero;stroke:none"
         id="path14" />
      <path
         d="M 9473.43,3602.39 V 2138.7 c 0,-255.77 131.22,-333.08 316.28,-333.08 174.91,0 299.49,104.26 299.49,316.2 v 1480.57 h 578.7 V 2054.58 c 0,-454.37 -363.3,-730.14 -891.68,-730.14 -582.18,0 -881.53,235.48 -881.53,780.5 v 1497.45 h 578.74"
         style="fill:#201f1e;fill-opacity:1;fill-rule:nonzero;stroke:none"
         id="path16" />
      <path
         d="m 13141.2,3602.39 h 1463.9 V 3097.65 H 13720 v -339.88 h 760.5 V 2253.03 H 13720 v -383.57 h 908.5 v -504.73 h -1487.3 v 2237.66"
         style="fill:#201f1e;fill-opacity:1;fill-rule:nonzero;stroke:none"
         id="path18" />
      <path
         d="m 15187.4,1748.31 c 104.4,-70.64 343.3,-191.79 609.2,-191.79 225.4,0 471,70.78 471,413.94 0,269.1 -235.6,356.48 -504.6,430.68 -323.2,87.38 -639.4,208.53 -639.4,622.47 0,373.51 289.4,619.2 709.9,619.2 302.9,0 568.6,-141.43 726.9,-299.45 l -148.2,-178.32 c -174.8,151.22 -370.1,248.96 -582.1,248.96 -188.3,0 -430.6,-80.86 -430.6,-363.44 0,-265.84 228.8,-343.3 518.2,-430.82 309.7,-97.46 625.8,-215.34 625.8,-639.21 0,-420.61 -282.6,-656.09 -753.6,-656.09 -323.2,0 -622.5,131.21 -713.4,205.12 l 110.9,218.75"
         style="fill:#201f1e;fill-opacity:1;fill-rule:nonzero;stroke:none"
         id="path20" />
      <path
         d="m 18428,3602.39 v -228.82 h -679.6 V 1364.73 h -265.9 v 2008.84 h -666.3 v 228.82 H 18428"
         style="fill:#201f1e;fill-opacity:1;fill-rule:nonzero;stroke:none"
         id="path22" />
      <path
         d="m 19526.3,1549.85 c 487.9,0 639.5,461.04 639.5,918.53 0,397.06 -131.3,945.62 -642.9,945.62 -491.2,0 -673,-467.7 -673,-925.48 0,-444.02 121.1,-938.67 676.4,-938.67 z m -27,-225.41 c -575.3,0 -921.9,386.85 -921.9,1154.15 0,864.77 497.9,1164.22 955.7,1164.22 484.5,0 905.1,-306.27 905.1,-1164.22 0,-770.57 -363.4,-1154.15 -938.9,-1154.15"
         style="fill:#201f1e;fill-opacity:1;fill-rule:nonzero;stroke:none"
         id="path24" />
      <path
         d="m 23174.4,2269.92 h 753.7 c -380.2,1093.43 -380.2,1093.43 -380.2,1093.43 z m -565.4,-905.19 787.5,2237.66 h 316.3 L 24517,1364.73 h -279.4 l -245.5,689.85 h -881.7 l -238.9,-689.85 H 22609"
         style="fill:#201f1e;fill-opacity:1;fill-rule:nonzero;stroke:none"
         id="path26" />
      <path
         d="m 26314.3,1529.56 c -185.1,-124.54 -451,-205.12 -743.6,-205.12 -588.7,0 -952.3,373.37 -952.3,1154.15 0,871.29 504.8,1164.22 952.3,1164.22 228.8,0 521.6,-70.78 750.3,-363.43 l -191.8,-151.5 c -148,174.9 -323,286.12 -561.8,286.12 -424,0 -676.4,-346.56 -676.4,-911.86 0,-605.88 215.4,-959.1 703.3,-959.1 175,0 373.4,60.57 454.1,117.88 v 666.02 h -508.1 v 228.97 h 774 V 1529.56"
         style="fill:#201f1e;fill-opacity:1;fill-rule:nonzero;stroke:none"
         id="path28" />
      <path
         d="m 26769.5,3602.39 h 1251.7 v -228.82 h -985.8 v -753.83 h 847.8 v -228.68 h -847.8 v -797.52 h 1009.3 v -228.81 h -1275.2 v 2237.66"
         style="fill:#201f1e;fill-opacity:1;fill-rule:nonzero;stroke:none"
         id="path30" />
      <path
         d="m 21446.2,2404.54 h -336.4 v 979.1 h 292.7 c 380.2,0 649.4,-43.69 649.4,-487.85 0,-360.03 -249,-491.25 -605.7,-491.25 z m 631.7,-337.76 c -50.9,112.49 -83.4,169.37 -153.7,204.7 246.9,109.94 400.3,329.96 400.3,664.74 0,437.49 -282.7,666.17 -753.8,666.17 H 20844 V 1364.73 h 265.8 v 824.47 h 383.6 c 27.3,0 54.1,0.86 80.4,2.56 l -3.8,-1.42 c 137.9,0 201.7,-90.09 258.9,-211.09 l 284.8,-613.82 h 282.6 l -318.4,701.35"
         style="fill:#201f1e;fill-opacity:1;fill-rule:nonzero;stroke:none"
         id="path32" />
      <path
         d="m 11650.9,2557.32 v 592.26 h 161.5 c 212.1,0 333.2,-63.98 333.2,-292.8 0,-232.22 -141.2,-299.46 -363.4,-299.46 z m 895.9,-482.59 c -33.4,80.28 -86.8,143.7 -146.6,174.19 212.5,127.54 341.1,342.16 341.1,644.75 0,464.44 -319.8,710.13 -848,710.13 h -821.1 V 1366.14 h 578.7 v 743.62 h 149 c 77.7,-5.39 127.4,-48.23 162.1,-126.68 l 271.5,-615.09 h 619.2 l -305.9,706.74"
         style="fill:#201f1e;fill-opacity:1;fill-rule:nonzero;stroke:none"
         id="path34" />
      <path
         d="m 28506.4,3384.31 c 41.1,0 77.4,4.06 77.4,52.45 0,40.31 -39.5,45.16 -72.6,45.16 h -66.1 v -97.61 z m -61.3,-189.53 h -54.8 v 333.91 h 126.5 c 80.7,0 121.9,-28.21 121.9,-95.99 0,-60.48 -37.1,-85.47 -87.1,-91.14 l 93.5,-146.78 h -62.1 l -86.3,142.76 h -51.6 z m 59.7,421.83 c -130.7,0 -232.4,-102.42 -232.4,-249.24 0,-137.09 88.8,-249.24 232.4,-249.24 129,0 230.7,101.67 230.7,249.24 0,146.82 -101.7,249.24 -230.7,249.24 z m 0,-550.88 c -173.4,0 -296.8,129.87 -296.8,301.64 0,181.5 137.1,301.68 296.8,301.68 158.1,0 295.2,-120.18 295.2,-301.68 0,-181.46 -137.1,-301.64 -295.2,-301.64"
         style="fill:#201f1e;fill-opacity:1;fill-rule:nonzero;stroke:none"
         id="path36" />
    </g>
  </g>
</svg>
