<svg xmlns="http://www.w3.org/2000/svg" width="77.899" height="75.636" viewBox="0 0 77.899 75.636">
  <g id="Group_95" data-name="Group 95" transform="translate(-304.091 -191.517)">
    <g id="Group_1" data-name="Group 1" transform="translate(304.091 247.192)">
      <path id="Path_1" data-name="Path 1" d="M310.714,345.827a.435.435,0,0,0-.523.041,2.935,2.935,0,0,1-1.948.772,2.912,2.912,0,0,1,0-5.82,3.062,3.062,0,0,1,1.924.752.448.448,0,0,0,.317.154.359.359,0,0,0,.286-.143l.295-.294a.441.441,0,0,0-.024-.636,4.049,4.049,0,0,0-2.786-1.068,4.152,4.152,0,1,0,0,8.3,3.951,3.951,0,0,0,2.81-1.124.474.474,0,0,0,.133-.358.36.36,0,0,0-.13-.264Z" transform="translate(-304.091 -339.583)" fill="#fff"/>
      <path id="Path_2" data-name="Path 2" d="M340.2,343.746a4.147,4.147,0,1,0-8.293,0,4.147,4.147,0,0,0,8.293,0Zm-4.152,2.927a2.938,2.938,0,1,1,2.937-2.927A2.93,2.93,0,0,1,336.048,346.673Z" transform="translate(-321.448 -339.583)" fill="#fff"/>
      <path id="Path_3" data-name="Path 3" d="M370.58,347.462a.444.444,0,0,0,.413.316h.436a.427.427,0,0,0,.341-.149.446.446,0,0,0,.077-.381l-1.41-7.342a.432.432,0,0,0-.415-.323h-.174a.43.43,0,0,0-.4.27l-1.943,5.489-1.971-5.486a.431.431,0,0,0-.4-.274h-.174a.435.435,0,0,0-.418.335l-1.406,7.325a.451.451,0,0,0,.076.385.426.426,0,0,0,.341.149h.437a.433.433,0,0,0,.419-.341l.817-4.84,1.767,5.015a.443.443,0,0,0,.4.275h.2a.443.443,0,0,0,.4-.271l1.749-5.019Z" transform="translate(-340.927 -339.583)" fill="#fff"/>
      <path id="Path_4" data-name="Path 4" d="M402.506,342.509a2.656,2.656,0,0,0-2.669-2.636h-2.411a.433.433,0,0,0-.433.432v7.221a.433.433,0,0,0,.433.433h.415a.438.438,0,0,0,.433-.433v-2.337h1.574A2.672,2.672,0,0,0,402.506,342.509Zm-1.291-.022a1.44,1.44,0,0,1-1.432,1.444h-1.509v-2.778h1.509A1.388,1.388,0,0,1,401.215,342.487Z" transform="translate(-362.061 -339.764)" fill="#fff"/>
      <path id="Path_5" data-name="Path 5" d="M427.216,339.873H426.8a.433.433,0,0,0-.433.432v4.57a1.841,1.841,0,1,1-3.671-.022v-4.548a.433.433,0,0,0-.433-.432h-.414a.438.438,0,0,0-.433.432v4.614a3.116,3.116,0,1,0,6.232,0v-4.614A.439.439,0,0,0,427.216,339.873Z" transform="translate(-377.3 -339.764)" fill="#fff"/>
      <path id="Path_6" data-name="Path 6" d="M452.606,340.622v-.317a.433.433,0,0,0-.433-.432h-4.625a.433.433,0,0,0-.433.432v.317a.433.433,0,0,0,.433.433h1.672v6.471a.438.438,0,0,0,.433.433h.414a.439.439,0,0,0,.433-.433v-6.471h1.672A.433.433,0,0,0,452.606,340.622Z" transform="translate(-393.336 -339.764)" fill="#fff"/>
      <path id="Path_7" data-name="Path 7" d="M471.537,347.959h4.3a.433.433,0,0,0,.433-.433v-.316a.433.433,0,0,0-.433-.433H472.4v-2.33h2.9a.433.433,0,0,0,.433-.433V343.7a.438.438,0,0,0-.433-.432h-2.9v-2.211h3.439a.433.433,0,0,0,.433-.433v-.317a.433.433,0,0,0-.433-.432h-4.3a.433.433,0,0,0-.433.432v7.221A.433.433,0,0,0,471.537,347.959Z" transform="translate(-408.304 -339.764)" fill="#fff"/>
      <path id="Path_8" data-name="Path 8" d="M496.105,347.959h.426a.439.439,0,0,0,.433-.433v-2.555h1.718l1.388,2.764a.413.413,0,0,0,.377.224H501a.434.434,0,0,0,.38-.206.452.452,0,0,0,0-.443l-1.379-2.557a2.547,2.547,0,0,0-1.078-4.88h-2.825a.433.433,0,0,0-.433.432v7.221A.433.433,0,0,0,496.105,347.959Zm.88-4.16v-2.68h1.891a1.34,1.34,0,1,1,0,2.68Z" transform="translate(-423.634 -339.764)" fill="#fff"/>
      <path id="Path_9" data-name="Path 9" d="M310.3,370.873H306a.433.433,0,0,0-.433.432v7.221a.433.433,0,0,0,.433.433h4.3a.433.433,0,0,0,.433-.433v-.316a.433.433,0,0,0-.433-.433h-3.439v-2.33h2.9a.433.433,0,0,0,.433-.433V374.7a.438.438,0,0,0-.433-.432h-2.9v-2.211H310.3a.433.433,0,0,0,.433-.433v-.317A.433.433,0,0,0,310.3,370.873Z" transform="translate(-305.014 -359.107)" fill="#fff"/>
      <path id="Path_10" data-name="Path 10" d="M330.219,370.692h-.382a.433.433,0,0,0-.433.432v5.2l-4.607-5.741h-.381a.428.428,0,0,0-.433.422v7.34a.438.438,0,0,0,.433.433h.382a.433.433,0,0,0,.433-.433v-5.3l4.683,5.847h.3a.428.428,0,0,0,.433-.422v-7.341A.438.438,0,0,0,330.219,370.692Z" transform="translate(-316.503 -358.926)" fill="#fff"/>
      <path id="Path_11" data-name="Path 11" d="M352.943,374.837h-1.887a.428.428,0,0,0-.433.433v.4a.423.423,0,0,0,.433.422h1.029v1.165a4.1,4.1,0,0,1-1.738.369,2.918,2.918,0,0,1,0-5.831,3.076,3.076,0,0,1,1.92.792.464.464,0,0,0,.308.146.406.406,0,0,0,.3-.153c.055-.062.125-.129.192-.194l.1-.1a.441.441,0,0,0-.024-.636,4.047,4.047,0,0,0-2.786-1.068,4.152,4.152,0,1,0,0,8.3,5.561,5.561,0,0,0,2.829-.764.491.491,0,0,0,.178-.355v-2.5A.428.428,0,0,0,352.943,374.837Z" transform="translate(-330.363 -358.926)" fill="#fff"/>
      <path id="Rectangle_2" data-name="Rectangle 2" d="M.651,0h0A.651.651,0,0,1,1.3.651V7.435a.651.651,0,0,1-.651.651h0A.651.651,0,0,1,0,7.435V.651A.651.651,0,0,1,.651,0Z" transform="translate(24.838 11.766)" fill="#fff"/>
      <path id="Path_12" data-name="Path 12" d="M385.806,370.692h-.382a.433.433,0,0,0-.433.432v5.2l-4.607-5.741H380a.428.428,0,0,0-.433.422v7.34a.438.438,0,0,0,.433.433h.382a.433.433,0,0,0,.433-.433v-5.3l4.683,5.847h.3a.428.428,0,0,0,.433-.422v-7.341A.438.438,0,0,0,385.806,370.692Z" transform="translate(-351.189 -358.926)" fill="#fff"/>
      <path id="Path_13" data-name="Path 13" d="M407.99,370.873h-4.3a.433.433,0,0,0-.433.432v7.221a.434.434,0,0,0,.433.433h4.3a.433.433,0,0,0,.433-.433v-.316a.433.433,0,0,0-.433-.433h-3.439v-2.33h2.9a.434.434,0,0,0,.433-.433V374.7a.439.439,0,0,0-.433-.432h-2.9v-2.211h3.439a.433.433,0,0,0,.433-.433v-.317A.433.433,0,0,0,407.99,370.873Z" transform="translate(-365.971 -359.107)" fill="#fff"/>
      <path id="Path_14" data-name="Path 14" d="M426.4,370.873h-4.3a.433.433,0,0,0-.433.432v7.221a.433.433,0,0,0,.433.433h4.3a.433.433,0,0,0,.433-.433v-.316a.433.433,0,0,0-.433-.433h-3.439v-2.33h2.9a.434.434,0,0,0,.433-.433V374.7a.438.438,0,0,0-.433-.432h-2.9v-2.211H426.4a.433.433,0,0,0,.433-.433v-.317A.433.433,0,0,0,426.4,370.873Z" transform="translate(-377.46 -359.107)" fill="#fff"/>
      <path id="Path_15" data-name="Path 15" d="M445.947,373.421a2.579,2.579,0,0,0-2.6-2.548h-2.825a.433.433,0,0,0-.433.432v7.221a.433.433,0,0,0,.433.433h.426a.438.438,0,0,0,.433-.433v-2.555H443.1l1.388,2.765a.413.413,0,0,0,.377.224h.556a.434.434,0,0,0,.38-.206.452.452,0,0,0,0-.443l-1.379-2.557A2.6,2.6,0,0,0,445.947,373.421Zm-1.313.011a1.358,1.358,0,0,1-1.345,1.367H441.4v-2.68h1.89A1.364,1.364,0,0,1,444.635,373.433Z" transform="translate(-388.949 -359.107)" fill="#fff"/>
      <path id="Rectangle_3" data-name="Rectangle 3" d="M.651,0h0A.651.651,0,0,1,1.3.651V7.435a.651.651,0,0,1-.651.651h0A.651.651,0,0,1,0,7.435V.651A.651.651,0,0,1,.651,0Z" transform="translate(58.813 11.766)" fill="#fff"/>
      <path id="Path_16" data-name="Path 16" d="M476.159,370.692h-.381a.433.433,0,0,0-.433.432v5.2l-4.607-5.741h-.381a.428.428,0,0,0-.433.422v7.34a.439.439,0,0,0,.433.433h.382a.433.433,0,0,0,.433-.433v-5.3l4.683,5.847h.3a.428.428,0,0,0,.433-.422v-7.341A.439.439,0,0,0,476.159,370.692Z" transform="translate(-407.567 -358.926)" fill="#fff"/>
      <path id="Path_17" data-name="Path 17" d="M498.883,374.837H497a.428.428,0,0,0-.432.433v.4a.422.422,0,0,0,.432.422h1.029v1.165a4.092,4.092,0,0,1-1.738.369,2.918,2.918,0,0,1,0-5.831,3.077,3.077,0,0,1,1.921.792.463.463,0,0,0,.308.146.405.405,0,0,0,.3-.153c.055-.062.125-.129.193-.194l.1-.1a.441.441,0,0,0-.024-.636,4.047,4.047,0,0,0-2.786-1.068,4.152,4.152,0,1,0,0,8.3,5.561,5.561,0,0,0,2.829-.764.491.491,0,0,0,.178-.355v-2.5A.428.428,0,0,0,498.883,374.837Z" transform="translate(-421.427 -358.926)" fill="#fff"/>
    </g>
    <rect id="Rectangle_4" data-name="Rectangle 4" width="77.177" height="2.561" transform="translate(304.678 236.88)" fill="#fff"/>
    <path id="Path_18" data-name="Path 18" d="M341.317,200.474v-7.912H316v0h-4.307v.006a5.825,5.825,0,0,0-5.771,5.773h0v24.607h.006c0,.064-.006.127-.006.192a5.829,5.829,0,0,0,5.829,5.829c.017,0,.033,0,.05,0v0h29.519v-7.912H315.084V214.72H339.1v-7.912h-24.02v-6.334Z" transform="translate(-1.141 -0.65)" fill="#fff"/>
    <path id="Path_19" data-name="Path 19" d="M447.721,215.186H443.1V197.24h-.006a5.818,5.818,0,0,0-9.72-4.219l0,0-21.945,20.065,0,0a5.825,5.825,0,0,0,4.052,10.014c.056,0,.111-.007.167-.009v.009h18.293v5.152h.006c0,.022,0,.044,0,.066H443.1V223.1h4.623Zm-26.8,0-.017-.047,13.038-11.921v11.968Z" transform="translate(-65.866)" fill="#fff"/>
  </g>
</svg>
