<svg id="Layer_1" data-name="Layer 1" xmlns="http://www.w3.org/2000/svg" width="324.20382" height="133.75796" viewBox="0 0 324.20382 133.75796"><polygon points="273.639 43.485 286.156 56.002 273.639 68.518 273.639 81.479 298.834 56.284 273.639 31.088 273.639 43.485" style="fill:#93b931"/><polygon points="248.161 43.485 260.677 56.002 248.161 68.518 248.161 81.479 273.358 56.284 248.161 31.088 248.161 43.485" style="fill:#3e2a82"/><polygon points="222.685 43.485 235.202 56.002 222.685 68.518 222.685 81.479 247.88 56.284 222.685 31.088 222.685 43.485" style="fill:#70abbb"/><path d="M1.4502,13.56806a11.575,11.575,0,0,1,3.475-8.50995,11.56783,11.56783,0,0,1,8.509-3.474l55.929-.001a11.61649,11.61649,0,0,1,8.47,3.475,11.50548,11.50548,0,0,1,3.516,8.51v55.928a12.00607,12.00607,0,0,1-11.986,11.988H13.4342a11.50646,11.50646,0,0,1-8.509-3.517,11.611,11.611,0,0,1-3.475-8.471Zm15.979,51.934h47.94v-47.94h-47.94Z" style="fill:#1c305e"/><path d="M169.6012,5.05811a11.58906,11.58906,0,0,0-8.511-3.478l-55.927.004a11.61592,11.61592,0,0,0-8.47,3.472,11.49278,11.49278,0,0,0-3.519,8.511l.002,45.146h-.002l-.001,73.349,15.981-3.995v-46.583l51.936-.003a11.93468,11.93468,0,0,0,11.986-11.986v-55.932a11.56852,11.56852,0,0,0-3.475-8.50494m-12.506,60.444h-47.941v-47.94h47.941Z" style="fill:#1c305e"/><rect x="184.34038" y="1.58051" width="15.2935" height="79.89801" style="fill:#1c305e"/><path d="M223.82522,97.32209h-1.123v-1.763h1.123Zm0,11.408h-1.123v-9.238h1.123Z" style="fill:#65b2c9"/><path d="M233.89559,108.72986h-1.143v-4.783c0-1.802,0-2.325-.349-2.829a2.1026,2.1026,0,0,0-1.802-.79394,2.46913,2.46913,0,0,0-2.15,1.047c-.581.774-.581,1.374-.581,3.311v4.048h-1.142v-9.219h1.142v1.646a2.85524,2.85524,0,0,1,2.887-1.85894,3.05531,3.05531,0,0,1,2.517,1.104c.6.79395.621,1.54895.621,3.545Z" style="fill:#65b2c9"/><path d="M243.9807,108.72968h-1.123v-1.666a2.896,2.896,0,0,1-2.827,1.879c-2.17,0-3.815-1.879-3.815-4.841,0-2.984,1.781-4.804,3.989-4.804a2.65365,2.65365,0,0,1,2.653,1.685V95.05573h1.123Zm-1.684-7.398a2.49832,2.49832,0,0,0-2.053-.988c-1.82,0-2.789,1.627-2.789,3.758,0,1.394.425,3.756,2.75,3.756,2.653,0,2.673-2.807,2.692-3.659a4.86334,4.86334,0,0,0-.6-2.867" style="fill:#65b2c9"/><path d="M254.0675,108.72986h-1.142v-1.66595a3.44235,3.44235,0,0,1-.466.833,3.00868,3.00868,0,0,1-2.459,1.046,2.82137,2.82137,0,0,1-2.77-1.704,8.65436,8.65436,0,0,1-.329-3.215v-4.532h1.143v4.783c.019,2.015.019,3.622,2.092,3.622a2.5366,2.5366,0,0,0,1.956-.774c.812-.853.833-1.841.833-3.564v-4.067h1.142Z" style="fill:#65b2c9"/><path d="M260.80349,103.52008a3.70239,3.70239,0,0,1,1.957.988,2.4058,2.4058,0,0,1,.619,1.627c0,1.355-1.065,2.828-3.468,2.828a3.97313,3.97313,0,0,1-2.323-.66,3.79206,3.79206,0,0,1-1.395-1.819l1.124-.388a2.52267,2.52267,0,0,0,2.594,1.84c1.589,0,2.345-.852,2.345-1.821,0-1.201-1.221-1.491-1.976-1.646-.348-.077-.735-.155-1.104-.233-.852-.194-2.401-.58-2.401-2.382,0-.949.542-2.576,3.312-2.576a4.14269,4.14269,0,0,1,2.149.523,2.54244,2.54244,0,0,1,1.143,1.57l-1.103.27a1.48023,1.48023,0,0,0-.795-1.046,2.88051,2.88051,0,0,0-1.452-.329c-.697,0-2.131.175-2.131,1.55,0,1.007.91,1.258,1.937,1.491Z" style="fill:#65b2c9"/><path d="M267.7333,106.7743c0,.871.31,1.123.755,1.123a2.36438,2.36438,0,0,0,1.279-.582v1.144a2.48781,2.48781,0,0,1-1.471.446c-1.667,0-1.667-.93-1.667-2.693v-5.753h-1.936v-.967h1.936v-3.933h1.104v3.933h2.034v.967h-2.034Z" style="fill:#65b2c9"/><path d="M272.65069,108.72986h-1.123v-9.238h1.123v1.471a2.71981,2.71981,0,0,1,2.692-1.626,3.259,3.259,0,0,1,.64.058v1.026a2.997,2.997,0,0,0-.698-.058,2.56723,2.56723,0,0,0-1.898.736c-.717.794-.717,1.743-.736,3.642Z" style="fill:#65b2c9"/><path d="M278.69121,97.32209h-1.124v-1.763h1.124Zm0,11.408h-1.124v-9.238h1.124Z" style="fill:#65b2c9"/><path d="M289.41878,106.28943a4.83363,4.83363,0,0,1-.871,1.395,3.9794,3.9794,0,0,1-3.157,1.278c-3.06,0-4.397-2.344-4.397-4.92,0-3.059,2.014-4.764,4.261-4.764,2.788,0,4.243,2.441,4.164,4.84205h-7.166a4.97758,4.97758,0,0,0,.291,1.918,2.87676,2.87676,0,0,0,2.847,1.897,3.10736,3.10736,0,0,0,2.963-1.936Zm-1.297-3.09906a3.44356,3.44356,0,0,0-.969-2.188,2.78237,2.78237,0,0,0-1.917-.698,2.98056,2.98056,0,0,0-2.963,2.886Z" style="fill:#65b2c9"/><path d="M295.49669,103.52008a3.70579,3.70579,0,0,1,1.957.988,2.40579,2.40579,0,0,1,.619,1.627c0,1.355-1.065,2.828-3.468,2.828a3.97944,3.97944,0,0,1-2.324-.66,3.79625,3.79625,0,0,1-1.394-1.819l1.124-.388a2.52268,2.52268,0,0,0,2.594,1.84c1.589,0,2.345-.852,2.345-1.821,0-1.201-1.221-1.491-1.976-1.646-.348-.077-.735-.155-1.104-.233-.852-.194-2.401-.58-2.401-2.382,0-.949.542-2.576,3.312-2.576a4.14272,4.14272,0,0,1,2.149.523,2.54237,2.54237,0,0,1,1.143,1.57l-1.105.27a1.473,1.473,0,0,0-.793-1.046,2.88047,2.88047,0,0,0-1.452-.329c-.697,0-2.131.175-2.131,1.55,0,1.007.91,1.258,1.937,1.491Z" style="fill:#65b2c9"/><path d="M223.99779,126.13428c0,.871.31,1.123.755,1.123a2.35854,2.35854,0,0,0,1.278-.582v1.145a2.49589,2.49589,0,0,1-1.47.445c-1.667,0-1.667-.931-1.667-2.694v-5.752h-1.937v-.967h1.937v-3.933h1.104v3.933h2.033v.967h-2.033Z" style="fill:#60a9c6"/><path d="M235.59679,125.65039a4.89987,4.89987,0,0,1-.871,1.394,3.98286,3.98286,0,0,1-3.157,1.279c-3.061,0-4.397-2.345-4.397-4.921,0-3.059,2.015-4.764,4.26-4.764,2.789,0,4.243,2.441,4.165,4.842h-7.166a4.97141,4.97141,0,0,0,.29,1.918,2.87762,2.87762,0,0,0,2.848,1.898,3.10805,3.10805,0,0,0,2.963-1.938Zm-1.297-3.1a3.45384,3.45384,0,0,0-.969-2.188,2.78438,2.78438,0,0,0-1.917-.698,2.97861,2.97861,0,0,0-2.963,2.886Z" style="fill:#60a9c6"/><path d="M245.19829,126.03748a3.9548,3.9548,0,0,1-.715,1.104,3.74037,3.74037,0,0,1-2.983,1.182c-2.982,0-4.242-2.40295-4.242-4.785,0-3.08,1.879-4.901,4.415-4.901a3.47351,3.47351,0,0,1,3.525,2.325l-1.065.251a2.621,2.621,0,0,0-2.498-1.549c-1.782,0-3.138,1.376-3.138,3.816,0,1.433.524,3.835,3.042,3.835a2.59229,2.59229,0,0,0,2.479-1.55Z" style="fill:#60a9c6"/><path d="M253.9114,128.0896h-1.142v-5.01495c0-.234-.02-1.376-.039-1.453a1.90387,1.90387,0,0,0-2.131-1.918,2.48019,2.48019,0,0,0-2.576,2.034,10.41308,10.41308,0,0,0-.135,2.363v3.98895h-1.143V114.41565h1.143v5.907a3.08351,3.08351,0,0,1,2.866-1.665,2.95649,2.95649,0,0,1,2.886,1.743,7.67972,7.67972,0,0,1,.271,2.48Z" style="fill:#60a9c6"/><path d="M263.998,128.0896h-1.142v-4.783c0-1.802,0-2.324-.349-2.829a2.103,2.103,0,0,0-1.801-.79394,2.46982,2.46982,0,0,0-2.151,1.047c-.58.774-.58,1.374-.58,3.31195v4.047h-1.143v-9.219h1.143v1.646a2.8552,2.8552,0,0,1,2.887-1.85895,3.05567,3.05567,0,0,1,2.516,1.104c.601.79395.62,1.54895.62,3.545Z" style="fill:#60a9c6"/><path d="M270.48247,128.323c-2.692,0-4.165-2.131-4.165-4.727,0-2.401,1.221-4.958,4.204-4.958,2.924,0,4.163,2.402,4.183,4.785.02,2.808-1.607,4.9-4.222,4.9m.058-8.716a2.78367,2.78367,0,0,0-2.131.949,4.81137,4.81137,0,0,0-.871,3.06c0,2.634,1.355,3.699,2.944,3.699,2.033,0,2.983-1.608,3.002-3.757,0-.524.039-3.951-2.944-3.951" style="fill:#60a9c6"/><rect x="277.00521" y="114.41608" width="1.14301" height="13.67401" style="fill:#60a9c6"/><path d="M284.59588,128.323c-2.692,0-4.165-2.131-4.165-4.727,0-2.401,1.221-4.958,4.204-4.958,2.924,0,4.164,2.402,4.183,4.785.02,2.808-1.607,4.9-4.222,4.9m.058-8.716a2.78369,2.78369,0,0,0-2.131.949,4.81135,4.81135,0,0,0-.871,3.06c0,2.634,1.355,3.699,2.944,3.699,2.034,0,2.983-1.608,3.002-3.757,0-.524.039-3.951-2.944-3.951" style="fill:#60a9c6"/><path d="M298.6907,127.10181c0,2.383,0,3.68-.929,4.629a4.39267,4.39267,0,0,1-3.195,1.084,4.509,4.509,0,0,1-2.751-.812,3.20239,3.20239,0,0,1-1.22-2.479l1.181-.234c.155.989.426,2.518,2.925,2.518,1.744,0,2.537-.715,2.77-2.033.077-.485.096-2.402.116-3.003v-.463a2.02773,2.02773,0,0,1-.542.987,3.36657,3.36657,0,0,1-2.518.987c-2.653,0-4.01-2.208-4.01-4.881,0-3.098,1.743-4.764,4.029-4.764a3.03213,3.03213,0,0,1,3.041,1.918v-1.704h1.103Zm-3.989-7.476a2.85048,2.85048,0,0,0-2.17.93005,4.27759,4.27759,0,0,0-.851,2.828,4.68115,4.68115,0,0,0,.851,2.982,2.582,2.582,0,0,0,2.093.891c2.827,0,2.905-2.634,2.924-3.699,0-1.414-.155-3.932-2.847-3.932" style="fill:#60a9c6"/><path d="M302.73519,116.68207h-1.124v-1.763h1.124Zm0,11.408h-1.124v-9.238h1.124Z" style="fill:#60a9c6"/><path d="M313.4627,125.65039a4.846,4.846,0,0,1-.87,1.394,3.98361,3.98361,0,0,1-3.158,1.279c-3.06,0-4.397-2.345-4.397-4.921,0-3.059,2.015-4.764,4.262-4.764,2.789,0,4.242,2.441,4.163,4.842h-7.165a4.9521,4.9521,0,0,0,.29,1.918,2.87655,2.87655,0,0,0,2.847,1.898,3.10807,3.10807,0,0,0,2.963-1.938Zm-1.297-3.1a3.44352,3.44352,0,0,0-.969-2.188,2.7824,2.7824,0,0,0-1.917-.698,2.98057,2.98057,0,0,0-2.963,2.886Z" style="fill:#60a9c6"/><path d="M319.54061,122.88056a3.70364,3.70364,0,0,1,1.957.98706,2.41,2.41,0,0,1,.619,1.628c0,1.355-1.065,2.828-3.468,2.828a3.981,3.981,0,0,1-2.323-.66,3.79494,3.79494,0,0,1-1.395-1.82l1.124-.388a2.52167,2.52167,0,0,0,2.594,1.84c1.589,0,2.345-.852,2.345-1.821,0-1.2-1.221-1.49-1.976-1.645-.348-.078-.735-.155-1.104-.234-.852-.193-2.401-.579-2.401-2.382,0-.948.542-2.576,3.312-2.576a4.13217,4.13217,0,0,1,2.149.524,2.53863,2.53863,0,0,1,1.143,1.569l-1.103.271a1.48321,1.48321,0,0,0-.795-1.046,2.87064,2.87064,0,0,0-1.452-.33c-.697,0-2.131.175-2.131,1.551,0,1.006.91,1.258,1.937,1.491Z" style="fill:#60a9c6"/><path d="M223.82522,97.32209h-1.123v-1.763h1.123Zm0,11.408h-1.123v-9.238h1.123Z" style="fill:#65b2c9"/><path d="M233.89559,108.72986h-1.143v-4.783c0-1.802,0-2.325-.349-2.829a2.1026,2.1026,0,0,0-1.802-.79394,2.46913,2.46913,0,0,0-2.15,1.047c-.581.774-.581,1.374-.581,3.311v4.048h-1.142v-9.219h1.142v1.646a2.85524,2.85524,0,0,1,2.887-1.85894,3.05531,3.05531,0,0,1,2.517,1.104c.6.79395.621,1.54895.621,3.545Z" style="fill:#65b2c9"/><path d="M243.9807,108.72968h-1.123v-1.666a2.896,2.896,0,0,1-2.827,1.879c-2.17,0-3.815-1.879-3.815-4.841,0-2.984,1.781-4.804,3.989-4.804a2.65365,2.65365,0,0,1,2.653,1.685V95.05573h1.123Zm-1.684-7.398a2.49832,2.49832,0,0,0-2.053-.988c-1.82,0-2.789,1.627-2.789,3.758,0,1.394.425,3.756,2.75,3.756,2.653,0,2.673-2.807,2.692-3.659a4.86334,4.86334,0,0,0-.6-2.867" style="fill:#65b2c9"/><path d="M254.0675,108.72986h-1.142v-1.66595a3.44235,3.44235,0,0,1-.466.833,3.00868,3.00868,0,0,1-2.459,1.046,2.82137,2.82137,0,0,1-2.77-1.704,8.65436,8.65436,0,0,1-.329-3.215v-4.532h1.143v4.783c.019,2.015.019,3.622,2.092,3.622a2.5366,2.5366,0,0,0,1.956-.774c.812-.853.833-1.841.833-3.564v-4.067h1.142Z" style="fill:#65b2c9"/><path d="M260.80349,103.52008a3.70239,3.70239,0,0,1,1.957.988,2.4058,2.4058,0,0,1,.619,1.627c0,1.355-1.065,2.828-3.468,2.828a3.97313,3.97313,0,0,1-2.323-.66,3.79206,3.79206,0,0,1-1.395-1.819l1.124-.388a2.52267,2.52267,0,0,0,2.594,1.84c1.589,0,2.345-.852,2.345-1.821,0-1.201-1.221-1.491-1.976-1.646-.348-.077-.735-.155-1.104-.233-.852-.194-2.401-.58-2.401-2.382,0-.949.542-2.576,3.312-2.576a4.14269,4.14269,0,0,1,2.149.523,2.54244,2.54244,0,0,1,1.143,1.57l-1.103.27a1.48023,1.48023,0,0,0-.795-1.046,2.88051,2.88051,0,0,0-1.452-.329c-.697,0-2.131.175-2.131,1.55,0,1.007.91,1.258,1.937,1.491Z" style="fill:#65b2c9"/><path d="M267.7333,106.7743c0,.871.31,1.123.755,1.123a2.36438,2.36438,0,0,0,1.279-.582v1.144a2.48781,2.48781,0,0,1-1.471.446c-1.667,0-1.667-.93-1.667-2.693v-5.753h-1.936v-.967h1.936v-3.933h1.104v3.933h2.034v.967h-2.034Z" style="fill:#65b2c9"/><path d="M272.65069,108.72986h-1.123v-9.238h1.123v1.471a2.71981,2.71981,0,0,1,2.692-1.626,3.259,3.259,0,0,1,.64.058v1.026a2.997,2.997,0,0,0-.698-.058,2.56723,2.56723,0,0,0-1.898.736c-.717.794-.717,1.743-.736,3.642Z" style="fill:#65b2c9"/><path d="M278.69121,97.32209h-1.124v-1.763h1.124Zm0,11.408h-1.124v-9.238h1.124Z" style="fill:#65b2c9"/><path d="M289.41878,106.28943a4.83363,4.83363,0,0,1-.871,1.395,3.9794,3.9794,0,0,1-3.157,1.278c-3.06,0-4.397-2.344-4.397-4.92,0-3.059,2.014-4.764,4.261-4.764,2.788,0,4.243,2.441,4.164,4.84205h-7.166a4.97758,4.97758,0,0,0,.291,1.918,2.87676,2.87676,0,0,0,2.847,1.897,3.10736,3.10736,0,0,0,2.963-1.936Zm-1.297-3.09906a3.44356,3.44356,0,0,0-.969-2.188,2.78237,2.78237,0,0,0-1.917-.698,2.98056,2.98056,0,0,0-2.963,2.886Z" style="fill:#65b2c9"/><path d="M295.49669,103.52008a3.70579,3.70579,0,0,1,1.957.988,2.40579,2.40579,0,0,1,.619,1.627c0,1.355-1.065,2.828-3.468,2.828a3.97944,3.97944,0,0,1-2.324-.66,3.79625,3.79625,0,0,1-1.394-1.819l1.124-.388a2.52268,2.52268,0,0,0,2.594,1.84c1.589,0,2.345-.852,2.345-1.821,0-1.201-1.221-1.491-1.976-1.646-.348-.077-.735-.155-1.104-.233-.852-.194-2.401-.58-2.401-2.382,0-.949.542-2.576,3.312-2.576a4.14272,4.14272,0,0,1,2.149.523,2.54237,2.54237,0,0,1,1.143,1.57l-1.105.27a1.473,1.473,0,0,0-.793-1.046,2.88047,2.88047,0,0,0-1.452-.329c-.697,0-2.131.175-2.131,1.55,0,1.007.91,1.258,1.937,1.491Z" style="fill:#65b2c9"/><path d="M223.99779,126.13428c0,.871.31,1.123.755,1.123a2.35854,2.35854,0,0,0,1.278-.582v1.145a2.49589,2.49589,0,0,1-1.47.445c-1.667,0-1.667-.931-1.667-2.694v-5.752h-1.937v-.967h1.937v-3.933h1.104v3.933h2.033v.967h-2.033Z" style="fill:#442a80"/><path d="M235.59679,125.65039a4.89987,4.89987,0,0,1-.871,1.394,3.98286,3.98286,0,0,1-3.157,1.279c-3.061,0-4.397-2.345-4.397-4.921,0-3.059,2.015-4.764,4.26-4.764,2.789,0,4.243,2.441,4.165,4.842h-7.166a4.97141,4.97141,0,0,0,.29,1.918,2.87762,2.87762,0,0,0,2.848,1.898,3.10805,3.10805,0,0,0,2.963-1.938Zm-1.297-3.1a3.45384,3.45384,0,0,0-.969-2.188,2.78438,2.78438,0,0,0-1.917-.698,2.97861,2.97861,0,0,0-2.963,2.886Z" style="fill:#442a80"/><path d="M245.19829,126.03748a3.9548,3.9548,0,0,1-.715,1.104,3.74037,3.74037,0,0,1-2.983,1.182c-2.982,0-4.242-2.40295-4.242-4.785,0-3.08,1.879-4.901,4.415-4.901a3.47351,3.47351,0,0,1,3.525,2.325l-1.065.251a2.621,2.621,0,0,0-2.498-1.549c-1.782,0-3.138,1.376-3.138,3.816,0,1.433.524,3.835,3.042,3.835a2.59229,2.59229,0,0,0,2.479-1.55Z" style="fill:#442a80"/><path d="M253.9114,128.0896h-1.142v-5.01495c0-.234-.02-1.376-.039-1.453a1.90387,1.90387,0,0,0-2.131-1.918,2.48019,2.48019,0,0,0-2.576,2.034,10.41308,10.41308,0,0,0-.135,2.363v3.98895h-1.143V114.41565h1.143v5.907a3.08351,3.08351,0,0,1,2.866-1.665,2.95649,2.95649,0,0,1,2.886,1.743,7.67972,7.67972,0,0,1,.271,2.48Z" style="fill:#442a80"/><path d="M263.998,128.0896h-1.142v-4.783c0-1.802,0-2.324-.349-2.829a2.103,2.103,0,0,0-1.801-.79394,2.46982,2.46982,0,0,0-2.151,1.047c-.58.774-.58,1.374-.58,3.31195v4.047h-1.143v-9.219h1.143v1.646a2.8552,2.8552,0,0,1,2.887-1.85895,3.05567,3.05567,0,0,1,2.516,1.104c.601.79395.62,1.54895.62,3.545Z" style="fill:#442a80"/><path d="M270.48247,128.323c-2.692,0-4.165-2.131-4.165-4.727,0-2.401,1.221-4.958,4.204-4.958,2.924,0,4.163,2.402,4.183,4.785.02,2.808-1.607,4.9-4.222,4.9m.058-8.716a2.78367,2.78367,0,0,0-2.131.949,4.81137,4.81137,0,0,0-.871,3.06c0,2.634,1.355,3.699,2.944,3.699,2.033,0,2.983-1.608,3.002-3.757,0-.524.039-3.951-2.944-3.951" style="fill:#442a80"/><rect x="277.00521" y="114.41608" width="1.14301" height="13.67401" style="fill:#442a80"/><path d="M284.59588,128.323c-2.692,0-4.165-2.131-4.165-4.727,0-2.401,1.221-4.958,4.204-4.958,2.924,0,4.164,2.402,4.183,4.785.02,2.808-1.607,4.9-4.222,4.9m.058-8.716a2.78369,2.78369,0,0,0-2.131.949,4.81135,4.81135,0,0,0-.871,3.06c0,2.634,1.355,3.699,2.944,3.699,2.034,0,2.983-1.608,3.002-3.757,0-.524.039-3.951-2.944-3.951" style="fill:#442a80"/><path d="M298.6907,127.10181c0,2.383,0,3.68-.929,4.629a4.39267,4.39267,0,0,1-3.195,1.084,4.509,4.509,0,0,1-2.751-.812,3.20239,3.20239,0,0,1-1.22-2.479l1.181-.234c.155.989.426,2.518,2.925,2.518,1.744,0,2.537-.715,2.77-2.033.077-.485.096-2.402.116-3.003v-.463a2.02773,2.02773,0,0,1-.542.987,3.36657,3.36657,0,0,1-2.518.987c-2.653,0-4.01-2.208-4.01-4.881,0-3.098,1.743-4.764,4.029-4.764a3.03213,3.03213,0,0,1,3.041,1.918v-1.704h1.103Zm-3.989-7.476a2.85048,2.85048,0,0,0-2.17.93005,4.27759,4.27759,0,0,0-.851,2.828,4.68115,4.68115,0,0,0,.851,2.982,2.582,2.582,0,0,0,2.093.891c2.827,0,2.905-2.634,2.924-3.699,0-1.414-.155-3.932-2.847-3.932" style="fill:#442a80"/><path d="M302.73519,116.68207h-1.124v-1.763h1.124Zm0,11.408h-1.124v-9.238h1.124Z" style="fill:#442a80"/><path d="M313.4627,125.65039a4.846,4.846,0,0,1-.87,1.394,3.98361,3.98361,0,0,1-3.158,1.279c-3.06,0-4.397-2.345-4.397-4.921,0-3.059,2.015-4.764,4.262-4.764,2.789,0,4.242,2.441,4.163,4.842h-7.165a4.9521,4.9521,0,0,0,.29,1.918,2.87655,2.87655,0,0,0,2.847,1.898,3.10807,3.10807,0,0,0,2.963-1.938Zm-1.297-3.1a3.44352,3.44352,0,0,0-.969-2.188,2.7824,2.7824,0,0,0-1.917-.698,2.98057,2.98057,0,0,0-2.963,2.886Z" style="fill:#442a80"/><path d="M319.54061,122.88056a3.70364,3.70364,0,0,1,1.957.98706,2.41,2.41,0,0,1,.619,1.628c0,1.355-1.065,2.828-3.468,2.828a3.981,3.981,0,0,1-2.323-.66,3.79494,3.79494,0,0,1-1.395-1.82l1.124-.388a2.52167,2.52167,0,0,0,2.594,1.84c1.589,0,2.345-.852,2.345-1.821,0-1.2-1.221-1.49-1.976-1.645-.348-.078-.735-.155-1.104-.234-.852-.193-2.401-.579-2.401-2.382,0-.948.542-2.576,3.312-2.576a4.13217,4.13217,0,0,1,2.149.524,2.53863,2.53863,0,0,1,1.143,1.569l-1.103.271a1.48321,1.48321,0,0,0-.795-1.046,2.87064,2.87064,0,0,0-1.452-.33c-.697,0-2.131.175-2.131,1.551,0,1.006.91,1.258,1.937,1.491Z" style="fill:#442a80"/></svg>